<svg width="512" height="512" viewBox="0 0 512 512" fill="none" xmlns="http://www.w3.org/2000/svg">
<g clip-path="url(#clip0_4354_16468)">
<path d="M464.484 296.542L458.971 293.36L348.164 229.409C346.425 228.405 344.527 227.976 342.653 227.978C339.029 227.98 335.528 229.755 333.436 232.974C333.329 233.138 333.195 233.273 333.097 233.445C330.05 238.719 331.859 245.462 337.134 248.507L341.47 251.01L436.745 305.995L341.546 359.856L341.47 359.812L294.199 332.531C293.92 332.334 293.645 332.133 293.346 331.96L287.831 328.777L236.2 298.979L225.152 292.603L214.139 286.247L177.025 264.827C175.285 263.822 173.387 263.393 171.513 263.395C167.704 263.398 163.999 265.328 161.958 268.863C161.801 269.134 161.711 269.422 161.58 269.701C159.161 274.834 160.991 281.037 165.994 283.925L169.662 286.041L218.795 314.397C219.075 314.596 219.353 314.799 219.655 314.972L265.536 341.452L170.406 395.274L169.662 394.844L65.061 334.476V212.942L170.352 152.176L171.542 152.862L214.139 177.446L225.181 183.819L236.2 190.178L281.158 216.125C283.26 217.338 285.589 217.751 287.831 217.512C291.216 217.151 294.394 215.262 296.227 212.089C296.314 211.937 296.358 211.775 296.437 211.621C299.127 206.422 297.313 199.985 292.189 197.027L247.299 171.12L341.493 116.758L342.683 117.445L452.297 180.707C454.399 181.92 456.729 182.333 458.971 182.094C462.356 181.732 465.532 179.844 467.364 176.671C470.41 171.398 468.605 164.655 463.326 161.61L347.006 94.477C343.595 92.5077 339.388 92.5077 335.977 94.477L225.237 158.387L175.867 129.895C172.454 127.925 168.249 127.925 164.837 129.895L48.5154 197.027C45.1033 198.997 43 202.637 43 206.576V340.841C43 344.781 45.1033 348.421 48.5154 350.391L164.837 417.525C166.543 418.507 168.447 419 170.352 419C172.225 419 174.099 418.524 175.786 417.571L287.708 354.249L335.977 382.106C337.682 383.091 339.585 383.581 341.49 383.581C343.365 383.581 345.237 383.105 346.926 382.153L464.404 315.686C467.849 313.738 469.984 310.094 470.001 306.138C470.017 302.182 467.913 298.521 464.484 296.542Z" fill="#004A8F"/>
<path d="M452.296 180.707L342.682 117.445L342.652 227.978C344.526 227.977 346.424 228.405 348.163 229.41L458.97 293.361V182.094C456.729 182.333 454.398 181.921 452.296 180.707Z" fill="#31A8E1"/>
<path d="M337.134 248.508C331.858 245.463 330.05 238.72 333.096 233.446C333.195 233.274 333.329 233.138 333.436 232.975L296.437 211.622C296.358 211.776 296.314 211.938 296.227 212.09C294.394 215.263 291.216 217.152 287.83 217.513C285.589 217.752 283.26 217.339 281.158 216.126L236.2 190.179L225.181 183.82L214.139 177.447L171.541 152.863L171.512 263.396C173.387 263.394 175.285 263.823 177.025 264.828L214.139 286.248L225.151 292.604L236.2 298.98L287.83 328.778L293.346 331.961C293.645 332.133 293.92 332.335 294.198 332.532L341.47 359.813V251.01L337.134 248.508Z" fill="#B1DEED"/>
<path d="M165.994 283.924C160.99 281.036 159.16 274.833 161.579 269.7L65.0605 213.996V334.476L169.662 394.844V286.041L165.994 283.924Z" fill="#31A8E1"/>
</g>
<defs>
<clipPath id="clip0_4354_16468">
<rect width="427" height="326" fill="white" transform="translate(43 93)"/>
</clipPath>
</defs>
</svg>
